<svg xmlns="http://www.w3.org/2000/svg" xml:space="preserve" style="fill-rule:evenodd;clip-rule:evenodd;stroke-linejoin:round;stroke-miterlimit:2" viewBox="0 0 48 48"><path d="M0 0h48v48H0z" style="fill:none"/><clipPath id="a"><path d="M0 0h48v48H0z"/></clipPath><g clip-path="url(#a)"><path d="M0 0h180v180H0z" style="fill:#0989d8" transform="matrix(.26667 0 0 .26667 0 0)"/><g transform="scale(.1875)"><circle cx="128" cy="128" r="128" style="fill:#0989d8"/><clipPath id="b"><circle cx="128" cy="128" r="128"/></clipPath><g clip-path="url(#b)"><path d="M0 252.826c-11.486 0-22.969-4.386-31.724-13.159-17.489-17.522-17.464-45.9.058-63.39L127.37 17.487C144.889 0 173.271.023 190.761 17.547c17.489 17.521 17.462 45.899-.059 63.389L31.666 239.727C22.917 248.461 11.457 252.826 0 252.826" style="fill:#fff;fill-rule:nonzero" transform="matrix(.52973 0 0 .52973 85.877 59.873)"/></g></g></g></svg>